<svg width="22" height="20" viewBox="0 0 22 20" fill="none" xmlns="http://www.w3.org/2000/svg">
<path d="M10.1021 0C12.5847 0 14.6094 1.99 14.6094 4.44V9.23H8.50472C8.06722 9.23 7.72129 9.57 7.72129 10C7.72129 10.42 8.06722 10.77 8.50472 10.77H14.6094V15.55C14.6094 18 12.5847 20 10.0818 20H5.12682C2.63408 20 0.609375 18.01 0.609375 15.56V4.45C0.609375 1.99 2.64426 0 5.13699 0H10.1021ZM17.1496 6.5502C17.4496 6.2402 17.9396 6.2402 18.2396 6.5402L21.1596 9.4502C21.3096 9.6002 21.3896 9.7902 21.3896 10.0002C21.3896 10.2002 21.3096 10.4002 21.1596 10.5402L18.2396 13.4502C18.0896 13.6002 17.8896 13.6802 17.6996 13.6802C17.4996 13.6802 17.2996 13.6002 17.1496 13.4502C16.8496 13.1502 16.8496 12.6602 17.1496 12.3602L18.7496 10.7702H14.6096V9.2302H18.7496L17.1496 7.6402C16.8496 7.3402 16.8496 6.8502 17.1496 6.5502Z" fill="#FF2222"/>
</svg>
