<svg width="36" height="37" viewBox="0 0 36 37" fill="none" xmlns="http://www.w3.org/2000/svg">
<path d="M20.9146 1.06054C20.101 0.375911 19.0679 0 18 0C16.9321 0 15.899 0.375911 15.0854 1.06054L1.58538 12.4181C1.08848 12.8363 0.68933 13.3563 0.415584 13.9422C0.141838 14.5282 3.64305e-05 15.166 0 15.8116V33.5737C0 34.4824 0.364697 35.3539 1.01386 35.9964C1.66303 36.639 2.54348 37 3.46154 37H10.3846C11.3027 37 12.1831 36.639 12.8323 35.9964C13.4815 35.3539 13.8462 34.4824 13.8462 33.5737V23.9799C13.8462 23.7982 13.9191 23.6239 14.0489 23.4954C14.1788 23.3669 14.3549 23.2947 14.5385 23.2947H20.7692C20.9528 23.2947 21.1289 23.3669 21.2588 23.4954C21.3886 23.6239 21.4615 23.7982 21.4615 23.9799V33.5737C21.4615 34.4824 21.8262 35.3539 22.4754 35.9964C23.1246 36.639 24.005 37 24.9231 37H32.5385C33.4565 37 34.337 36.639 34.9861 35.9964C35.6353 35.3539 36 34.4824 36 33.5737V15.8116C36 15.166 35.8582 14.5282 35.5844 13.9422C35.3107 13.3563 34.9115 12.8363 34.4146 12.4181L20.9146 1.06054Z" fill="black"/>
</svg>
