<svg width="31" height="28" viewBox="0 0 31 28" fill="none" xmlns="http://www.w3.org/2000/svg">
<path d="M4.03301 4.53791C4.03301 4.24285 4.15139 3.95988 4.36211 3.75124C4.57283 3.54261 4.85863 3.4254 5.15664 3.4254H6.84207V1.75663C6.84207 1.46157 6.96045 1.1786 7.17117 0.969962C7.3819 0.761325 7.66769 0.644114 7.9657 0.644114C8.2637 0.644114 8.5495 0.761325 8.76022 0.969962C8.97094 1.1786 9.08932 1.46157 9.08932 1.75663V3.4254H10.7748C11.0728 3.4254 11.3586 3.54261 11.5693 3.75124C11.78 3.95988 11.8984 4.24285 11.8984 4.53791C11.8984 4.83296 11.78 5.11594 11.5693 5.32457C11.3586 5.53321 11.0728 5.65042 10.7748 5.65042H9.08932V7.31919C9.08932 7.61424 8.97094 7.89722 8.76022 8.10585C8.5495 8.31449 8.2637 8.4317 7.9657 8.4317C7.66769 8.4317 7.3819 8.31449 7.17117 8.10585C6.96045 7.89722 6.84207 7.61424 6.84207 7.31919V5.65042H5.15664C4.85863 5.65042 4.57283 5.53321 4.36211 5.32457C4.15139 5.11594 4.03301 4.83296 4.03301 4.53791ZM29.8764 16.2193H27.6291V13.9943C27.6291 13.6992 27.5107 13.4162 27.3 13.2076C27.0893 12.999 26.8035 12.8818 26.5055 12.8818C26.2075 12.8818 25.9217 12.999 25.711 13.2076C25.5003 13.4162 25.3819 13.6992 25.3819 13.9943V16.2193H23.1346C22.8366 16.2193 22.5508 16.3365 22.3401 16.5451C22.1294 16.7538 22.011 17.0367 22.011 17.3318C22.011 17.6269 22.1294 17.9098 22.3401 18.1185C22.5508 18.3271 22.8366 18.4443 23.1346 18.4443H25.3819V20.6693C25.3819 20.9644 25.5003 21.2474 25.711 21.456C25.9217 21.6646 26.2075 21.7818 26.5055 21.7818C26.8035 21.7818 27.0893 21.6646 27.3 21.456C27.5107 21.2474 27.6291 20.9644 27.6291 20.6693V18.4443H29.8764C30.1744 18.4443 30.4602 18.3271 30.6709 18.1185C30.8816 17.9098 31 17.6269 31 17.3318C31 17.0367 30.8816 16.7538 30.6709 16.5451C30.4602 16.3365 30.1744 16.2193 29.8764 16.2193ZM21.688 12.5619L6.74376 27.3444C6.5361 27.5521 6.28891 27.717 6.01649 27.8295C5.74406 27.9421 5.45181 28 5.15664 28C4.86146 28 4.56921 27.9421 4.29678 27.8295C4.02436 27.717 3.77718 27.5521 3.56952 27.3444L0.662137 24.4658C0.452356 24.2602 0.285824 24.0154 0.172171 23.7457C0.0585183 23.476 0 23.1866 0 22.8944C0 22.6021 0.0585183 22.3127 0.172171 22.043C0.285824 21.7733 0.452356 21.5285 0.662137 21.3229L21.5475 0.644114C21.9706 0.231369 22.5407 0 23.1346 0C23.7286 0 24.2987 0.231369 24.7217 0.644114L27.6291 3.52274C27.8389 3.72835 28.0054 3.97309 28.1191 4.24282C28.2327 4.51254 28.2913 4.8019 28.2913 5.09416C28.2913 5.38642 28.2327 5.67578 28.1191 5.94551C28.0054 6.21524 27.8389 6.45998 27.6291 6.66559L21.688 12.5619ZM20.8874 10.1978L26.042 5.09416L23.1346 2.21554L17.98 7.31919L20.8874 10.1978ZM22.011 22.8944H20.8874V21.7818C20.8874 21.4868 20.769 21.2038 20.5583 20.9952C20.3476 20.7865 20.0618 20.6693 19.7638 20.6693C19.4658 20.6693 19.18 20.7865 18.9692 20.9952C18.7585 21.2038 18.6401 21.4868 18.6401 21.7818V22.8944H17.5165C17.2185 22.8944 16.9327 23.0116 16.722 23.2202C16.5113 23.4288 16.3929 23.7118 16.3929 24.0069C16.3929 24.3019 16.5113 24.5849 16.722 24.7935C16.9327 25.0022 17.2185 25.1194 17.5165 25.1194H18.6401V26.2319C18.6401 26.527 18.7585 26.8099 18.9692 27.0186C19.18 27.2272 19.4658 27.3444 19.7638 27.3444C20.0618 27.3444 20.3476 27.2272 20.5583 27.0186C20.769 26.8099 20.8874 26.527 20.8874 26.2319V25.1194H22.011C22.309 25.1194 22.5948 25.0022 22.8055 24.7935C23.0162 24.5849 23.1346 24.3019 23.1346 24.0069C23.1346 23.7118 23.0162 23.4288 22.8055 23.2202C22.5948 23.0116 22.309 22.8944 22.011 22.8944Z" fill="#585A70"/>
</svg>
